{
  "title": "The Block - S12E20 - Living And Dining Rooms Revealed",
  "uid": 15896611,
  "size": 476013753,
  "categoryP": "video",
  "categoryS": "tv_shows",
  "magnet": "?xt=urn:btih:04f384c89028dbfea277326dedd8870ee6afb501&amp;dn=The+Block+-+S12E20+-+Living+And+Dining+Rooms+Revealed&amp;tr=udp%3A%2F%2Ftracker.leechers-paradise.org%3A6969&amp;tr=udp%3A%2F%2Fzer0day.ch%3A1337&amp;tr=udp%3A%2F%2Fopen.demonii.com%3A1337&amp;tr=udp%3A%2F%2Ftracker.coppersurfer.tk%3A6969&amp;tr=udp%3A%2F%2Fexodus.desync.com%3A6969",
  "seeders": 102,
  "leechers": 7,
  "uploader": "Bullrout",
  "files": 1,
  "time": 1474813515,
  "description": "The Block - S12E20 - Living And Dining Rooms Revealed\r\n\r\nIt's the explosive end to a massive week of renovating. Julia and Sasha struggle to get their room finished and Julia isn't happy with the result. Ben and Andy, the self proclaimed style king, argue about their dining table.\r\n\r\nComplete name                            : The Block - S12E20 - Living And Dining Rooms Revealed.mp4\r\nFormat                                   : MPEG-4\r\nFormat profile                           : Base Media / Version 2\r\nCodec ID                                 : mp42 (mp42/isom/avc1)\r\nFile size                                : 454 MiB\r\nDuration                                 : 57 min 31 s\r\nOverall bit rate mode                    : Variable\r\nOverall bit rate                         : 1 103 kb/s\r\n\r\nVideo\r\nID                                       : 2\r\nFormat                                   : AVC\r\nFormat/Info                              : Advanced Video Codec\r\nFormat profile                           :   \r\nFormat settings, CABAC                   : Yes\r\nFormat settings, ReFrames                : 3 frames\r\nCodec ID                                 : avc1\r\nCodec ID/Info                            : Advanced Video Coding\r\nDuration                                 : 57 min 31 s\r\nBit rate mode                            : Variable\r\nBit rate                                 : 972 kb/s\r\nMaximum bit rate                         : 1 000 kb/s\r\nWidth                                    : 720 pixels\r\nHeight                                   : 404 pixels\r\nDisplay aspect ratio                     : 16:9\r\nOriginal display aspect ratio            : 16:9\r\nFrame rate mode                          : Constant\r\nFrame rate                               : 25.000 FPS\r\nStandard                                 : PAL\r\nColor space                              : YUV\r\nChroma subsampling                       : 4:2:0\r\nBit depth                                : 8 bits\r\nScan type                                : Progressive\r\nBits/(Pixel*Frame)                       : 0.134\r\nStream size                              : 400 MiB (88%)\r\nWriting library                          : x264 core 112\r\nColor range                              : Limited\r\nColor primaries                          : BT.601 PAL\r\nTransfer characteristics                 : BT.470 System B, BT.470 System G\r\nMatrix coefficients                      : BT.601\r\n\r\nAudio\r\nID                                       : 1\r\nFormat                                   : AAC\r\nFormat/Info                              : Advanced Audio Codec\r\nFormat profile                           : LC\r\nCodec ID                                 : 40\r\nDuration                                 : 57 min 31 s\r\nBit rate mode                            : Variable\r\nBit rate                                 : 128 kb/s\r\nMaximum bit rate                         : 576 kb/s\r\nChannel(s)                               : 2 channels\r\nChannel positions                        : Front: L R\r\nSampling rate                            : 48.0 kHz\r\nFrame rate                               : 46.875 FPS (1024 spf)\r\nCompression mode                         : Lossy\r\nStream size                              : 52.7 MiB (12%)",
  "parsed": {
    "xt": "urn:btih:04f384c89028dbfea277326dedd8870ee6afb501",
    "dn": "The Block - S12E20 - Living And Dining Rooms Revealed",
    "tr": [
      "udp://exodus.desync.com:6969",
      "udp://open.demonii.com:1337",
      "udp://tracker.coppersurfer.tk:6969",
      "udp://tracker.leechers-paradise.org:6969",
      "udp://zer0day.ch:1337"
    ],
    "infoHash": "04f384c89028dbfea277326dedd8870ee6afb501",
    "infoHashBuffer": {
      "type": "Buffer",
      "data": [
        4,
        243,
        132,
        200,
        144,
        40,
        219,
        254,
        162,
        119,
        50,
        109,
        237,
        216,
        135,
        14,
        230,
        175,
        181,
        1
      ]
    },
    "name": "The Block - S12E20 - Living And Dining Rooms Revealed",
    "announce": [
      "udp://exodus.desync.com:6969",
      "udp://open.demonii.com:1337",
      "udp://tracker.coppersurfer.tk:6969",
      "udp://tracker.leechers-paradise.org:6969",
      "udp://zer0day.ch:1337"
    ],
    "urlList": []
  },
  "previous": 10,
  "peers": 0,
  "last_updated": "2016-12-26T15:03:10.047Z"
}